<?xml version="1.0" encoding="UTF-8" standalone="no"?>
<!-- Created with Inkscape (http://www.inkscape.org/) -->

<svg
   width="668.93414mm"
   height="292.82327mm"
   viewBox="0 0 668.93415 292.82327"
   version="1.1"
   id="svg59108"
   inkscape:version="1.2.2 (b0a8486541, 2022-12-01)"
   sodipodi:docname="Mask.svg"
   inkscape:export-filename="Mask.png"
   inkscape:export-xdpi="60"
   inkscape:export-ydpi="60"
   xmlns:inkscape="http://www.inkscape.org/namespaces/inkscape"
   xmlns:sodipodi="http://sodipodi.sourceforge.net/DTD/sodipodi-0.dtd"
   xmlns="http://www.w3.org/2000/svg"
   xmlns:svg="http://www.w3.org/2000/svg">
  <sodipodi:namedview
     id="namedview59110"
     pagecolor="#000000"
     bordercolor="#666666"
     borderopacity="1.0"
     inkscape:pageshadow="2"
     inkscape:pageopacity="0"
     inkscape:pagecheckerboard="0"
     inkscape:document-units="mm"
     showgrid="false"
     fit-margin-top="0"
     fit-margin-left="0"
     fit-margin-right="0"
     fit-margin-bottom="0"
     inkscape:zoom="0.39352092"
     inkscape:cx="1640.3194"
     inkscape:cy="1186.7222"
     inkscape:window-width="2560"
     inkscape:window-height="1510"
     inkscape:window-x="0"
     inkscape:window-y="54"
     inkscape:window-maximized="1"
     inkscape:current-layer="layer1"
     inkscape:snap-global="false"
     inkscape:showpageshadow="2"
     inkscape:deskcolor="#d1d1d1" />
  <defs
     id="defs59105">
    <linearGradient
       id="linearGradient57666"
       inkscape:swatch="solid">
      <stop
         style="stop-color:#672178;stop-opacity:1;"
         offset="0"
         id="stop57664" />
    </linearGradient>
    <linearGradient
       id="linearGradient55682"
       inkscape:swatch="solid">
      <stop
         style="stop-color:#000000;stop-opacity:1;"
         offset="0"
         id="stop55680" />
    </linearGradient>
    <mask
       maskUnits="userSpaceOnUse"
       id="mask57924">
      <path
         id="path57926"
         style="fill:#ffffff;fill-opacity:1;fill-rule:nonzero;stroke:none;stroke-width:0.353406"
         d="m -126.54667,269.9589 c 0.004,-0.002 0.007,-0.003 0.0101,-0.007 1.14096,-0.71902 2.28136,-1.44185 3.39622,-2.2155 l 0.83239,-0.58944 c 0.043,-0.0324 0.0864,-0.065 0.12986,-0.0974 0.20347,0.071 0.41225,0.13007 0.62255,0.18501 0.105,-0.04 0.19792,-0.0907 0.26778,-0.16259 -0.24399,-0.0396 -0.48655,-0.0862 -0.7247,-0.14689 0.17584,-0.13044 0.35225,-0.26047 0.52691,-0.3956 0.55393,-0.44257 1.03544,-0.87716 1.56066,-1.28789 0.52297,-0.40943 1.05355,-0.81168 1.5979,-1.20093 0.51988,-0.38028 1.05204,-0.72642 1.5814,-1.15501 0.0908,-0.38431 0.17908,-0.75755 0.40364,-0.95346 4e-5,-1.5e-4 -8e-5,3e-5 0,0 l -7e-5,1.4e-4 -0.0165,-0.0199 c -0.0439,-0.051 -0.0873,-0.11097 -0.13038,-0.17161 -0.17092,-0.24982 -0.3515,-0.5265 -0.57738,-0.76085 -0.16978,-0.17604 -0.36931,-0.31878 -0.57914,-0.44204 -0.19236,-0.30079 -0.43305,-0.47985 -0.66988,-0.631 -0.1357,-0.0854 -0.26779,-0.17425 -0.42557,-0.23646 l -0.22825,-0.101 -0.24763,-0.0702 c -0.60027,-0.17795 -1.25863,-0.0475 -1.7907,0.0866 -1.25996,-0.22098 -2.46962,-0.59611 -3.4908,-1.23203 -0.16454,-0.0913 -0.30551,-0.21328 -0.45903,-0.31733 l -0.46092,-0.36115 -0.93248,-0.72225 c -0.31196,-0.24321 -0.63364,-0.47678 -0.98244,-0.69741 -0.17477,-0.1102 -0.35789,-0.21794 -0.57237,-0.30401 l -0.16621,-0.0618 -0.18924,-0.0469 c -0.069,-0.0113 -0.14803,-0.0157 -0.22118,-0.0202 -0.0833,0.005 -0.17178,0.0154 -0.25841,0.0391 -0.0441,0.0181 -0.0905,0.0343 -0.13408,0.055 -0.58966,-0.45404 -1.24095,-0.83352 -1.8963,-1.17338 -0.7543,-0.41286 -1.49962,-0.84591 -2.24058,-1.28391 l -0.55305,-0.33149 -0.27182,-0.1685 -0.13352,-0.0844 c -0.0155,-0.009 -0.0115,-0.008 -0.0425,-0.026 -0.0365,-0.0196 -0.0759,-0.0368 -0.11557,-0.0499 -0.0894,-0.0231 -0.19084,-0.0236 -0.27424,5.3e-4 -0.0157,0.004 -0.0271,0.0111 -0.0418,0.0143 -0.40015,-0.48725 -0.85075,-0.89342 -1.32024,-1.27057 -0.28948,-0.2242 -0.60815,-0.40967 -0.91737,-0.60613 -0.30439,-0.20249 -0.63017,-0.37686 -0.95753,-0.55212 -0.16367,-0.0899 -0.31657,-0.18973 -0.454,-0.30742 -0.0626,-0.062 -0.12274,-0.12453 -0.18103,-0.19379 -0.0615,-0.0731 -0.1164,-0.1527 -0.17303,-0.22969 -0.22748,-0.30384 -0.40384,-0.6698 -0.65556,-0.96256 -0.25244,-0.29026 -0.57779,-0.49382 -0.9098,-0.6783 -0.16045,-0.0837 -0.32622,-0.16058 -0.49954,-0.22457 -0.24212,-0.28929 -0.5216,-0.51604 -0.79182,-0.72289 -0.30555,-0.23543 -0.61051,-0.44243 -0.87518,-0.68054 -0.23795,-0.21675 -0.46621,-0.46293 -0.69008,-0.71405 0.056,-0.0472 0.11322,-0.093 0.16799,-0.14069 0.27853,-0.24342 0.54383,-0.4926 0.80128,-0.74468 -0.0299,-0.0301 -0.0609,-0.0531 -0.0926,-0.0664 -0.0197,-0.008 -0.97321,0.35701 -2.03161,0.80569 -0.85586,0.75995 -1.75972,1.48016 -2.68567,2.17246 -2.49567,1.86576 -5.01905,3.70956 -7.37033,5.68756 -0.94117,0.79181 -1.71068,1.65444 -2.35365,2.56584 0.0203,0.11643 0.0315,0.23138 -0.0199,0.33657 -0.20251,0.41512 -0.50991,0.60482 -0.81151,1.223 -0.10513,0.21551 0.12231,0.88697 0.0832,1.15224 -0.0271,0.18436 -1.02704,1.66408 -1.17345,1.96417 -0.13482,0.27639 0.0749,0.59922 -0.005,0.8922 l -0.55798,4.96309 c -0.0325,1.76757 0.25901,3.28769 0.62814,4.48737 -0.19345,0.0415 0.12432,2.78994 0.0683,2.79831 0.065,0.13294 0.21348,0.25497 0.14902,0.3869 -0.0983,0.20141 -0.47317,0.88394 -0.87135,1.49278 0.11808,0.2217 0.23729,0.44285 0.35726,0.66411 -0.20953,-0.0889 -0.40701,-0.19547 -0.59954,-0.30971 -0.18383,0.25679 -0.36218,0.47706 -0.50954,0.59835 -0.078,0.0642 -0.49347,0.18075 -0.7855,0.28798 0.36256,0.69926 0.60191,1.49362 0.80052,2.2972 0.23367,0.9505 0.40228,1.93265 0.68094,2.91552 0.12536,1.06211 -0.0811,2.17455 -0.59471,3.12464 l -0.11213,0.20967 -0.13127,0.19957 -0.13076,0.19935 c -0.0465,0.0643 -0.099,0.12576 -0.14794,0.18848 -0.18419,0.24299 -0.42758,0.51773 -0.63049,0.80512 -0.20638,0.28848 -0.3961,0.59504 -0.54551,0.93881 -0.0719,0.1739 -0.13804,0.35434 -0.16915,0.55602 -0.0325,0.19858 -0.0423,0.41925 0.0243,0.6436 0.063,0.22393 0.22191,0.43301 0.41413,0.55161 0.19212,0.12197 0.39632,0.17446 0.59143,0.20429 0.38918,0.0474 0.75283,0.004 1.10079,-0.0656 0.69521,-0.1479 1.34034,-0.39688 1.96823,-0.67267 1.25563,-0.55642 2.42998,-1.30266 3.52506,-2.10308 2.19038,-1.61952 4.18348,-3.44026 6.32434,-5.07248 1.072,-0.81102 2.16357,-1.59591 3.29577,-2.31022 0.56984,-0.34888 1.13476,-0.70838 1.72585,-1.01475 0.29383,-0.15546 0.5819,-0.32342 0.87993,-0.46867 l 0.89236,-0.43682 c 0.44942,-0.20638 0.89679,-0.41874 1.34428,-0.63085 l 0.27853,-0.13069 c 1.83273,-0.87593 3.64603,-1.80136 5.43233,-2.77847 z m -17.77668,-61.71077 c -0.20981,-0.0959 -0.29077,-0.34335 -0.37146,-0.58488 -0.36209,-0.0137 -0.72532,-0.0189 -1.08526,-0.0463 -1.4546,-0.11106 -2.71368,-0.64049 -3.94452,-1.20302 -2.03969,-0.93259 -3.87328,-2.12009 -6.06765,-2.86189 -1.57045,-0.53121 -3.17131,-0.7465 -4.90558,-0.1519 -0.98564,0.33831 -1.86977,-0.0767 -2.70394,-0.23145 -3.48149,-0.64503 -6.96937,-0.14492 -10.49852,0.29303 -6.70127,0.83149 -12.6059,3.34198 -18.20358,6.45667 -2.84585,1.58332 -5.82656,3.14573 -8.191,5.13692 -2.47946,2.08739 -5.67991,2.84098 -8.44422,4.33553 -1.48778,0.8049 -3.10718,1.6062 -4.20768,2.69578 -1.21674,1.2037 -2.04996,2.67932 -2.69008,4.17353 l -2.76747,5.97673 c 0.10154,0.3904 -0.41054,4.37036 -0.64191,4.74145 l -0.90665,2.17931 c 0.51428,0.47346 -0.0252,0.90594 -0.0949,1.33246 -0.43654,2.67567 -1.43066,5.31553 -1.63227,8.00394 -0.0612,0.81719 -0.16703,1.65549 0.51327,2.35742 0.20418,0.21094 0.36184,0.54522 0.22752,0.90655 -0.50404,1.35375 -0.69404,2.7662 -0.82,4.16749 -0.17428,1.94002 -0.293,3.92677 -0.50105,5.88474 -0.21317,2.00979 -0.4934,4.04423 -1.20552,5.98892 -0.7787,2.12637 -2.18312,3.96311 -3.49557,5.81817 -0.16352,0.23153 -0.32648,0.46281 -0.48858,0.69523 -1.32931,1.90947 -2.36183,3.85678 -2.9688,5.95058 -0.31353,1.08186 -0.16563,2.05424 0.41685,2.83304 v 0 c 0,0 0.16075,0.47603 0.58573,1.14128 l 0.7474,0.99013 c 0.23409,0.2655 0.50557,0.53745 0.81631,0.80527 l 1.53108,1.05411 c 1.38422,0.75239 3.24811,1.29358 5.72697,1.24979 l 6.90374,-0.33732 c 2.99681,-0.0767 4.90248,-0.13247 8.69913,-1.32566 0.3612,-0.0966 0.72255,-0.1922 1.0829,-0.29477 1.52541,-0.42911 3.0363,-0.95705 4.51601,-1.57825 0.49306,-0.20758 0.98332,-0.42432 1.46847,-0.65193 0.25041,-0.11721 0.49564,-0.24544 0.74363,-0.36876 l -0.003,10e-4 c -0.0289,0.0191 -0.0473,0.0325 -0.0473,0.0325 l 3.79038,-2.11678 c 0.37862,-0.23215 0.75713,-0.46559 1.13088,-0.70431 0.3442,-0.22874 0.68559,-0.45884 1.02654,-0.68922 v 0 l 0.51241,-0.35049 c -0.008,-0.01 -0.0101,-0.0203 -0.004,-0.0325 -0.005,0.0114 -0.003,0.0225 0.004,0.0325 0.077,-0.0533 0.15327,-0.10898 0.23023,-0.16244 0.009,-0.004 0.0131,-0.006 0.0222,-0.009 l 5.48555,-4.4739 c 0.90193,-0.84146 1.78093,-1.70581 2.62821,-2.60017 1.48695,-1.55844 2.89843,-3.18658 4.19277,-4.91023 0.3179,-0.4359 0.62993,-0.8749 0.91119,-1.34329 0.0603,-0.10607 0.12379,-0.2074 0.1819,-0.31551 1.09924,-3.08377 0.54457,-3.04116 0.14143,-4.82591 -1.20264,-0.82947 -1.41137,-2.07083 -1.06345,-3.43661 0.32889,-1.29154 0.7389,-2.55115 1.4952,-3.72518 0.98896,-1.53547 2.00432,-3.06442 3.07372,-4.56961 -0.036,-0.0211 -0.006,-0.0837 0.24655,-0.35346 0.003,-0.004 0.008,-0.003 0.011,-0.007 0.32116,-0.44709 0.64529,-0.89261 0.97752,-1.33465 1.17035,-1.55771 1.74201,-3.22274 2.25484,-4.90894 0.0656,-0.21571 0.17223,-0.44028 0.27192,-0.66886 -0.53125,0.39604 -1.79851,1.52597 -2.76311,2.32708 -1.1121,1.14474 -2.31105,2.23546 -3.10262,3.51689 0.70078,-2.36068 1.27193,-4.76246 2.32352,-7.02718 0.0309,-0.95852 0.10938,-1.96961 0.3547,-2.71027 0.0279,-0.0845 0.0573,-0.15469 0.0865,-0.22581 -1.8614,1.94001 -3.2398,4.14375 -4.92828,6.14555 0.72571,-4.34806 2.86196,-8.07144 7.35441,-10.99103 1.86898,-1.21444 3.63466,-2.55461 5.63942,-3.6143 2.2555,-1.19168 4.23068,-2.57845 5.86792,-4.26538 0.11725,-0.54618 0.21101,-1.18609 0.32879,-1.73018 -2.22527,0.58091 -4.28378,1.64133 -6.4082,2.58243 1.74104,-1.85865 3.90036,-3.31276 6.243,-4.62206 1.61813,-0.90441 3.01586,-1.97133 3.24041,-3.68052 -0.0441,-0.0881 -0.0952,-0.17351 -0.15332,-0.25626 -1.43535,-1.33858 -3.34997,-0.74027 -5.23275,-0.24332 -3.39054,0.89479 -6.03121,2.57516 -7.89029,5.06683 -0.14621,0.19548 -0.36229,0.20967 -0.62694,0.10444 1.05649,-1.32541 2.09378,-2.65245 3.16498,-3.96385 1.8184,-2.22632 4.47775,-3.4314 7.55128,-3.62118 4.32169,-0.26685 7.72345,-1.81304 10.62535,-4.44416 1.05398,-0.956 1.909,-2.1347 3.71102,-2.4099 z m -68.81716,76.29211 c -0.0683,-0.0863 -0.14299,-0.16616 -0.21451,-0.24965 -0.0431,0.007 -0.0869,0.0137 -0.12995,0.0207 -2.33764,0.3749 -4.3159,0.66387 -5.98631,1.08643 1.85108,-0.0565 4.09015,-0.19834 6.3605,-0.51517 v 0 c 0.0665,-0.009 0.13377,-0.0194 0.20062,-0.0291 -0.0767,-0.10473 -0.15031,-0.21229 -0.23054,-0.31376 z m 35.78467,-20.67949 c -0.0807,-0.11675 -0.16661,-0.22873 -0.25418,-0.33721 -0.16247,-0.18945 -0.33496,-0.36798 -0.51666,-0.53618 -0.18181,-0.16741 -0.3724,-0.32542 -0.57112,-0.47145 0.1985,0.14648 0.38965,0.30334 0.57147,0.47077 0.1817,0.16821 0.35437,0.34719 0.51679,0.53667 0.0876,0.10847 0.17301,0.22065 0.2537,0.3374 z m 0.12003,1.76299 c -0.0205,0.0551 -0.048,0.10933 -0.0773,0.16331 v 0 c 0.0292,-0.054 0.0571,-0.10823 0.0778,-0.16351 z m -0.16344,0.32531 c -0.0636,0.10776 -0.14273,0.21585 -0.21294,0.32335 -0.20363,0.29771 -0.42962,0.5868 -0.65974,0.8731 -0.10162,0.12672 -0.20254,0.25373 -0.30584,0.37887 -0.67922,0.81579 -1.38368,1.61398 -2.11591,2.38729 0.73245,-0.77334 1.43713,-1.57176 2.11591,-2.38729 0.10362,-0.1253 0.20406,-0.25264 0.30569,-0.37933 0.23011,-0.2863 0.4556,-0.57519 0.65925,-0.87293 0.0705,-0.10763 0.14965,-0.21515 0.21358,-0.32306 z m -3.29494,3.96282 c -0.18072,0.19505 -0.36427,0.38731 -0.54909,0.57922 -0.18424,0.19179 -0.36994,0.38297 -0.55285,0.57645 0.18259,-0.19334 0.36845,-0.38515 0.55269,-0.57691 0.18459,-0.19193 0.36877,-0.38372 0.54925,-0.57876 z m -5.74074,5.53443 c -0.4011,0.34719 -0.80666,0.68863 -1.21741,1.02307 l -0.46273,0.37798 0.46257,-0.37845 c 0.41075,-0.33443 0.81636,-0.67576 1.21757,-1.0226 z m -5.02902,3.86301 c -0.43982,0.29564 -0.88321,0.58657 -1.32496,0.87583 -0.6656,0.4312 -1.33741,0.85123 -2.01636,1.25626 0.67893,-0.40508 1.35033,-0.82525 2.01572,-1.25656 0.44195,-0.28914 0.88573,-0.57989 1.3256,-0.87553 z m -0.1539,0.93852 c -0.0698,-0.0118 -0.13074,-0.0218 -0.20636,-0.0344 -0.0269,-0.005 -0.0536,-0.005 -0.0804,-0.006 0.0266,7.7e-4 0.0533,6.7e-4 0.0803,0.005 0.0755,0.0127 0.1366,0.0231 0.20653,0.0349 z m -0.32695,-0.0426 v 0 c -0.11197,-0.007 -0.2233,0.003 -0.33339,0.0248 0.11024,-0.0224 0.22176,-0.0317 0.33389,-0.025 z m -2.17676,1.47268 c -0.16688,0.223 -0.26538,0.38253 -0.26572,0.38306 v 0 c 0,0 0.0995,-0.1601 0.26671,-0.38347 z m -2.74367,0.92885 c -0.46296,0.24676 -0.93044,0.48546 -1.40159,0.71368 -0.44625,0.21908 -0.89635,0.42983 -1.34898,0.63344 0.45266,-0.20354 0.90257,-0.41482 1.34883,-0.63391 0.47105,-0.2285 0.93844,-0.46634 1.40174,-0.71321 z m -7.20976,3.04386 c -0.99116,0.32425 -1.9955,0.61622 -2.99656,0.8896 1.00106,-0.27338 2.0054,-0.56535 2.99656,-0.8896 z m -3.74841,1.08443 c -0.45491,0.11192 -0.90977,0.20723 -1.36244,0.27622 0.45271,-0.0693 0.9077,-0.16431 1.36244,-0.27622 z m -1.48678,0.53118 c -0.34524,0.0885 -0.73615,0.1877 -1.22518,0.29224 v 0 c 0.48951,-0.10446 0.88036,-0.20341 1.22582,-0.29197 z m -0.76104,-0.15809 c -0.36762,0.0166 -0.73031,-0.01 -1.05042,-0.12091 0.32011,0.11128 0.6828,0.13755 1.05042,0.12091 z m -1.35502,-0.26182 c -0.051,-0.024 -0.0963,-0.0568 -0.1398,-0.0916 -0.0437,-0.0352 -0.0852,-0.0724 -0.13053,-0.10577 0.0452,0.0333 0.0875,0.0705 0.1311,0.10554 0.0436,0.0348 0.0884,0.0678 0.13928,0.0918 z"
         sodipodi:nodetypes="cccccccccccccccccsccccccccccccccccccccccccccccccscccccccccsccscsssscccccccccccccccccccccscsccsccccccccccccccccccccccccccccccccccsccsccccscccccccsccccccscccccccscccccccccccccccccccccccccccccsccccccccccccccccccccccccccccscccsccccccccccccccccccccccccccccccccccccscccscccccccc" />
    </mask>
    <mask
       maskUnits="userSpaceOnUse"
       id="mask58122">
      <path
         id="path58124"
         style="fill:#ffffff;fill-opacity:1;fill-rule:nonzero;stroke:none;stroke-width:0.352777"
         d="m -159.74838,34.961454 c -0.0335,-0.01875 -0.0754,-0.03808 -0.12544,-0.05479 -0.0585,-0.01417 -0.12531,-0.03512 -0.23598,-0.0076 -0.10653,0.02315 -0.20626,0.123373 -0.23348,0.188873 -0.038,0.0728 -0.0451,0.123082 -0.0531,0.169881 -0.018,0.174835 0.006,0.286518 0.0259,0.404623 0.0216,0.115112 0.0486,0.223204 0.0778,0.329883 0.0591,0.212441 0.12634,0.417702 0.19705,0.6204 0.28506,0.808424 0.6179,1.58573 0.95428,2.362462 0.33865,0.774871 0.68844,1.543461 1.04302,2.309951 0.35514,0.76868 0.72267,1.522814 1.03769,2.296343 0.64292,1.545691 1.14606,3.149634 1.5462,4.779719 0.40259,1.629744 0.71048,3.285315 0.95029,4.949919 0.23253,1.6667 0.40067,3.342205 0.53009,5.020943 l 0.0885,1.260016 0.0389,1.256551 c -0.009,0.837806 -0.0415,1.677088 -0.13994,2.511317 -0.18903,1.668068 -0.53084,3.31781 -0.96974,4.939214 -0.44086,1.621684 -0.97615,3.218025 -1.59118,4.782983 -0.61736,1.564535 -1.29974,3.1029 -2.02724,4.619242 l -0.55443,1.133524 c -0.18701,0.378008 -0.3824,0.745235 -0.55885,1.138599 l -0.26787,0.582755 -0.23547,0.594634 c -0.16503,0.393967 -0.28832,0.800505 -0.43039,1.201442 -1.05284,3.233323 -1.67827,6.55873 -2.51515,9.810402 -0.42124,1.623104 -0.88887,3.236391 -1.53824,4.761219 l -0.49063,1.175904 c -0.0862,0.198395 -0.15294,0.401878 -0.21952,0.605229 l -0.20296,0.609816 c -0.1261,0.408442 -0.23217,0.821282 -0.34916,1.231662 l -0.0703,0.29943 8.5e-4,6.4e-4 c -0.0466,0.13994 -0.0911,0.28058 -0.13061,0.42273 -0.0414,0.14951 -0.0804,0.3003 -0.11264,0.45223 -0.0275,0.12908 -0.0473,0.26007 -0.0673,0.39131 -0.0165,0.10779 -0.0291,0.21618 -0.0397,0.32486 -0.14168,0.71753 -0.26672,1.43708 -0.37509,2.15832 -0.008,0.0562 -0.0161,0.11256 -0.0241,0.16822 -0.045,0.30482 -0.0894,0.60923 -0.12922,0.91479 -0.0497,0.37736 -0.0964,0.75503 -0.13936,1.13341 -0.0851,0.75966 -0.1575,1.51961 -0.21945,2.2807 -0.0754,0.92565 -0.1348,1.85281 -0.17057,2.78426 0.0358,-0.93105 0.0945,-1.85816 0.16995,-2.78344 -0.45313,0.77718 -0.51269,1.61532 -0.69347,2.45856 -0.0625,0.29251 -0.14143,0.58484 -0.23662,0.87472 -1.78248,1.04642 -3.58617,2.0675 -5.3949,3.06748 -1.14653,0.635 -2.30225,1.25207 -3.46824,1.84529 -1.16463,0.59199 -2.347,1.16334 -3.54592,1.62952 -0.14972,0.0657 -0.3001,0.10366 -0.45002,0.15256 -0.0774,0.0224 -0.14978,0.0466 -0.22415,0.0708 -0.0742,0.0234 -0.15079,0.0466 -0.23573,0.0673 -0.01,0.003 -0.019,0.005 -0.0287,0.008 -0.0748,0.0212 -0.14729,0.0398 -0.22292,0.064 -0.0855,0.0273 -0.17581,0.0621 -0.27901,0.11504 l -0.0403,0.0229 -0.0513,0.0378 c -0.0145,0.0106 -0.0335,0.0249 -0.061,0.0577 -0.006,0.009 -0.0123,0.0163 -0.0174,0.0225 -0.006,0.007 -0.0105,0.0132 -0.0159,0.0204 -0.005,0.007 -0.0105,0.0163 -0.0162,0.0278 -0.006,0.0116 -0.0121,0.0265 -0.0191,0.0464 -0.0226,0.0676 -0.0298,0.13329 -0.006,0.20695 0.0267,0.0841 0.0608,0.11913 0.0856,0.14371 l 4.2e-4,3.2e-4 1.20014,0.25479 c 0.0887,0.005 0.17775,0.0102 0.26681,0.0138 0.3332,0.0115 0.66444,0.0149 0.99513,0.0144 l 3.95104,-0.14399 c 0.81936,-0.05 1.63776,-0.11423 2.45528,-0.18534 l 3.04452,-0.30765 c 0.785,-0.09 1.56849,-0.18545 2.35138,-0.28979 1.71312,-0.23404 3.41694,-0.51193 5.11867,-0.79623 0.2407,-0.0402 0.48137,-0.0799 0.72175,-0.12028 0.16077,-0.0271 0.32157,-0.054 0.4823,-0.0808 -0.16063,0.0268 -0.32123,0.0541 -0.48189,0.0812 -0.24038,0.0404 -0.48147,0.0797 -0.72216,0.11997 l 1.66661,-0.27796 v 0 c 0.33208,-0.0556 0.66455,-0.11163 0.99671,-0.16674 1.60681,-0.27143 3.21406,-0.53848 4.82224,-0.80054 l 6.79479,-1.04455 c 0.74443,-0.10705 1.48995,-0.20748 2.23503,-0.31008 l 1.11707,-0.15445 c 0.46259,-0.0621 0.92556,-0.12217 1.38847,-0.18228 l 1.37485,-0.17525 c 1.87884,-0.23682 3.7587,-0.46279 5.64105,-0.66357 9.54134,-1.21288 17.54667,-1.76701 25.61759,0.28469 0,0 -0.006,-8.2e-4 -0.0113,-0.002 0.60663,0.0159 1.21846,0.004 1.84311,-0.0608 -1.62896,0.16754 0.36944,-0.0486 1.10043,-0.30856 0.0519,-0.0308 0.1092,-0.0775 0.16065,-0.11877 0.0544,-0.0554 0.11068,-0.11838 0.15366,-0.19675 0.0965,-0.16918 0.0984,-0.40113 0.0416,-0.54636 -0.0521,-0.14969 -0.12714,-0.25186 -0.19798,-0.3363 -0.0704,-0.0868 -0.16703,-0.16733 -0.24857,-0.23031 -0.33358,-0.2313 -0.65159,-0.35963 -0.97267,-0.48489 -0.32004,-0.11957 -0.64044,-0.22574 -0.9612,-0.31777 -1.28342,-0.37232 -2.57186,-0.64622 -3.86228,-0.91112 -1.29026,-0.26216 -2.58232,-0.50236 -3.87409,-0.73178 -1.28771,-0.23781 -2.59034,-0.44968 -3.84191,-0.74902 -1.25901,-0.32419 -2.53145,-0.68306 -3.80881,-0.99501 -0.30724,-0.0753 -0.6146,-0.14857 -0.92252,-0.22004 -0.19595,-0.0452 -0.39229,-0.0884 -0.58872,-0.13183 -0.10763,-0.0238 -0.21538,-0.0483 -0.32291,-0.0717 -0.25819,-0.0555 -0.51657,-0.10803 -0.77526,-0.15995 -0.0441,-0.009 -0.0881,-0.0183 -0.13251,-0.0271 -0.29023,-0.0574 -0.58134,-0.11173 -0.87262,-0.1642 -0.0112,-0.002 -0.0224,-0.004 -0.0339,-0.006 -1.22091,-0.21885 -2.45002,-0.38952 -3.68721,-0.4991 l -4.3e-4,-3.1e-4 c -0.008,-0.002 -0.0154,-0.005 -0.0228,-0.008 -0.14377,-0.11585 -0.2808,-0.2405 -0.41005,-0.36994 -0.29296,-0.29704 -0.55674,-0.62377 -0.79071,-0.97049 -0.47157,-0.69092 -0.84803,-1.44285 -1.17156,-2.21438 -0.14522,-0.39323 -0.31033,-0.77866 -0.43038,-1.18086 l -0.19335,-0.59769 -0.1662,-0.60645 c -0.22333,-0.80685 -0.41442,-1.63482 -0.64276,-2.446757 -0.0657,-0.232409 -0.13263,-0.465445 -0.19999,-0.698639 -0.0165,-0.05634 -0.0333,-0.112863 -0.0498,-0.169238 -0.0561,-0.190469 -0.11322,-0.380343 -0.17197,-0.570165 -0.0182,-0.05882 -0.0367,-0.117736 -0.0554,-0.176546 -0.0659,-0.209694 -0.13495,-0.418679 -0.20646,-0.626792 -0.0106,-0.03061 -0.0203,-0.06111 -0.0308,-0.09189 -0.0865,-0.248286 -0.17677,-0.495806 -0.27339,-0.741086 -0.006,-0.01442 -0.0125,-0.02913 -0.0182,-0.04387 -0.0597,-0.208566 -0.1193,-0.417076 -0.18672,-0.623026 -0.0358,-0.108459 -0.0743,-0.216065 -0.11195,-0.32375 -0.0773,-0.221657 -0.15715,-0.442702 -0.24183,-0.661501 -0.0383,-0.09852 -0.0763,-0.197027 -0.11588,-0.295111 -0.11821,-0.29307 -0.23913,-0.584533 -0.36798,-0.872772 -0.30241,-0.669982 -0.66842,-1.310504 -1.0409,-1.944295 -0.37142,-0.635213 -0.78877,-1.243583 -1.24574,-1.822423 -0.11459,-0.147338 -0.20979,-0.290708 -0.31025,-0.439897 -0.0949,-0.150748 -0.21118,-0.291468 -0.28024,-0.45683 -0.0803,-0.159705 -0.15027,-0.325535 -0.22503,-0.488552 -0.0753,-0.162932 -0.11214,-0.340333 -0.16413,-0.511483 -0.10653,-0.342406 -0.13049,-0.706189 -0.16374,-1.059571 -0.008,-0.358893 -0.0148,-0.712057 0.003,-1.065899 -0.005,-0.176278 0.0101,-0.35274 0.0176,-0.52879 0.008,-0.176343 0.004,-0.352424 0.0183,-0.528939 0.0157,-0.352962 0.0497,-0.70563 0.0829,-1.060159 0.0252,-0.241146 0.06,-0.482556 0.0935,-0.724182 0.0803,-0.189214 0.15681,-0.381036 0.2314,-0.574464 0.0176,-0.0454 0.0365,-0.09002 0.0533,-0.13556 0.0841,-0.225069 0.16327,-0.452316 0.23187,-0.684949 0.0622,-0.209264 0.11207,-0.425663 0.16577,-0.639472 0.0307,-0.22434 0.0873,-0.438995 0.0896,-0.67302 0.0379,-0.454786 -0.0268,-0.952037 -0.20417,-1.384174 -0.17259,-0.433848 -0.39863,-0.796521 -0.57562,-1.158898 -0.18019,-0.361636 -0.31796,-0.732005 -0.428,-1.113986 -0.19791,-0.764196 -0.24118,-1.58977 -0.25466,-2.416714 -0.009,-0.829368 0.0226,-1.668636 0.0511,-2.51053 0.0613,-1.684927 0.10566,-3.386354 0.0114,-5.088638 -0.10113,-1.699009 -0.27775,-3.407177 -0.76065,-5.077333 -0.23991,-0.832432 -0.56277,-1.634153 -0.89585,-2.412362 -0.33294,-0.778984 -0.67186,-1.545698 -0.98743,-2.321427 -0.64787,-1.546732 -1.19479,-3.12405 -1.7365,-4.722352 l -0.45051,-1.20746 -0.53245,-1.169272 c -0.085,-0.197057 -0.1831,-0.386414 -0.28587,-0.573828 l -0.30157,-0.564863 c -0.10151,-0.187346 -0.1982,-0.37821 -0.30393,-0.563435 l -0.329,-0.547945 c -0.42637,-0.738607 -0.9075,-1.440289 -1.379,-2.147844 l -0.74286,-1.034735 c -0.24588,-0.345982 -0.51365,-0.675838 -0.76939,-1.014588 -2.07222,-2.686521 -4.41644,-5.150147 -6.80639,-7.523511 -0.14826,-0.148223 -0.28422,-0.296392 -0.45582,-0.458146 -0.0876,-0.07848 -0.17228,-0.156016 -0.30594,-0.232886 z m -7.72739,76.917986 -0.004,0.10985 -4.3e-4,-3.2e-4 z m -14.33832,8.07766 v 0 l -0.003,0.002 z"
         sodipodi:nodetypes="cccccccccccccccccccccccccccccccccccccscccccccccccccccsccscsccccsccccccccsscccccccccccccccccccccccccccccscccccccccccccccccscsccccccscccccccccccccsccccccccccccccccccccccccccccccccccc" />
    </mask>
    <filter
       style="color-interpolation-filters:sRGB;"
       inkscape:label="Lighting"
       id="filter58386"
       x="0"
       y="0"
       width="1"
       height="1">
      <feComponentTransfer
         in="blur"
         result="component"
         id="feComponentTransfer58384">
        <feFuncR
           type="gamma"
           amplitude="1.1"
           exponent="0.958084"
           offset="-0.227545"
           id="feFuncR58378" />
        <feFuncG
           type="gamma"
           amplitude="1.1"
           exponent="0.958084"
           offset="-0.227545"
           id="feFuncG58380" />
        <feFuncB
           type="gamma"
           amplitude="1.1"
           exponent="0.958084"
           offset="-0.227545"
           id="feFuncB58382" />
        <feFuncA
           type="identity"
           id="feFuncA71239" />
      </feComponentTransfer>
    </filter>
    <filter
       style="color-interpolation-filters:sRGB;"
       inkscape:label="Lightness-Contrast"
       id="filter61718"
       x="0"
       y="0"
       width="1"
       height="1">
      <feColorMatrix
         values="0.1"
         type="saturate"
         result="colormatrix1"
         id="feColorMatrix61702" />
      <feColorMatrix
         values="1 0 0 0 0 0 1 0 0 0 0 0 1 0 0 0 0 0 1 0 "
         in="SourceGraphic"
         result="colormatrix2"
         id="feColorMatrix61704" />
      <feFlood
         flood-color="rgb(0,255,255)"
         flood-opacity="1"
         result="flood"
         id="feFlood61706" />
      <feComposite
         in2="colormatrix2"
         operator="out"
         result="composite1"
         id="feComposite61708" />
      <feMerge
         result="merge"
         id="feMerge61714">
        <feMergeNode
           in="colormatrix1"
           id="feMergeNode61710" />
        <feMergeNode
           in="composite1"
           id="feMergeNode61712" />
      </feMerge>
      <feComposite
         in="merge"
         in2="SourceGraphic"
         operator="in"
         result="fbSourceGraphic"
         id="feComposite61716" />
      <feColorMatrix
         result="fbSourceGraphicAlpha"
         in="fbSourceGraphic"
         values="0 0 0 -1 0 0 0 0 -1 0 0 0 0 -1 0 0 0 0 1 0"
         id="feColorMatrix62515" />
      <feColorMatrix
         id="feColorMatrix62517"
         values="1 -0 -0 0 0.2 -0 1 -0 0 0.2 -0 -0 1 0 0.2 0 0 0 1 0 "
         in="fbSourceGraphic"
         result="fbSourceGraphic" />
      <feColorMatrix
         result="fbSourceGraphicAlpha"
         in="fbSourceGraphic"
         values="0 0 0 -1 0 0 0 0 -1 0 0 0 0 -1 0 0 0 0 1 0"
         id="feColorMatrix62775" />
      <feColorMatrix
         id="feColorMatrix62777"
         values="0.35 0 0 0.03375 0.325 0 0.35 0 0.03375 0.325 0 0 0.35 0.03375 0.325 0 0 0 1 0"
         in="fbSourceGraphic" />
    </filter>
    <mask
       maskUnits="userSpaceOnUse"
       id="mask62027">
      <path
         id="path62029"
         style="fill:#ffffff;fill-opacity:1;fill-rule:nonzero;stroke:none;stroke-width:0.352814"
         d="m -176.74536,-54.913246 c -0.56955,0.416576 -0.97914,0.213634 -1.46593,-0.490078 0.25926,1.4531 1.68419,2.266667 1.82726,3.462135 -1.22263,0.155214 -3.19341,-1.227332 -4.24765,-2.979491 -0.17741,0.62648 0.0393,0.954405 0.66749,1.666382 0.99062,1.123461 2.60391,1.58002 3.52388,2.815017 0.43666,0.586445 0.69107,1.203269 1.15227,1.826875 -0.10198,0.315484 -0.21054,0.652128 -0.33735,1.045559 0.54778,0.268059 1.05808,0.517806 1.54075,0.754324 0.008,0.07425 0.009,0.144278 0.004,0.210459 l 3e-5,-2.2e-5 -0.006,0.06496 v 0 c -0.0779,0.594219 -0.64123,0.861392 -1.1002,1.065645 l 0.52078,0.377854 c 0.65081,0.03023 0.55759,0.514359 0.81488,0.636408 1.01853,-0.166505 1.14806,-1.733144 2.75502,-0.817474 0.19607,-0.377534 0.35911,-0.691502 0.47331,-0.911893 0.2506,-0.09169 0.49753,-0.181216 0.7427,-0.270076 0.0546,-0.108719 0.0999,-0.223006 0.18699,-0.312096 0.0659,-0.171904 0.1191,-0.32182 0.17292,-0.504056 0.0182,-0.286769 0.0369,-0.573558 0.0616,-0.860151 -0.0307,-0.01121 -0.0643,-0.02364 -0.0948,-0.03475 -0.0105,-0.350035 -0.0559,-0.690986 -0.0193,-1.0143 0.0323,-0.288193 0.15562,-0.556739 0.19785,-0.697921 -1.29927,-1.415295 -1.37448,-2.827688 -1.30499,-4.263136 -0.66919,-0.247272 -0.37238,0.571364 -0.91781,0.525935 -0.81362,-0.679782 -0.67951,-1.627663 -1.00601,-2.401835 -0.56926,-0.176062 -0.37951,0.351304 -0.74754,0.35743 -1.1017,-0.588632 -1.53237,-1.425709 -1.44028,-2.59351 l -0.62527,-0.335443 c 0.0663,0.208653 0.0819,0.388177 0.0675,0.54913 -0.0441,0.482815 -0.35655,0.798155 -0.38175,1.231296 -1.87324,0.02288 -2.53171,-1.872583 -1.01453,1.896822 z"
         sodipodi:nodetypes="ccccccccsccccccccccccccccccccccccc" />
    </mask>
    <filter
       style="color-interpolation-filters:sRGB;"
       inkscape:label="Lightness-Contrast"
       id="filter62047"
       x="0"
       y="0"
       width="1"
       height="1">
      <feColorMatrix
         values="0.1"
         type="saturate"
         result="colormatrix1"
         id="feColorMatrix62031" />
      <feColorMatrix
         values="1 0 0 0 0 0 1 0 0 0 0 0 1 0 0 0 0 0 1 0 "
         in="SourceGraphic"
         result="colormatrix2"
         id="feColorMatrix62033" />
      <feFlood
         flood-color="rgb(0,255,255)"
         flood-opacity="1"
         result="flood"
         id="feFlood62035" />
      <feComposite
         in2="colormatrix2"
         operator="out"
         result="composite1"
         id="feComposite62037" />
      <feMerge
         result="merge"
         id="feMerge62043">
        <feMergeNode
           in="colormatrix1"
           id="feMergeNode62039" />
        <feMergeNode
           in="composite1"
           id="feMergeNode62041" />
      </feMerge>
      <feComposite
         in="merge"
         in2="SourceGraphic"
         operator="in"
         result="fbSourceGraphic"
         id="feComposite62045" />
      <feColorMatrix
         result="fbSourceGraphicAlpha"
         in="fbSourceGraphic"
         values="0 0 0 -1 0 0 0 0 -1 0 0 0 0 -1 0 0 0 0 1 0"
         id="feColorMatrix62511" />
      <feColorMatrix
         id="feColorMatrix62513"
         values="1 -0 -0 0 0.2 -0 1 -0 0 0.2 -0 -0 1 0 0.2 0 0 0 1 0 "
         in="fbSourceGraphic"
         result="fbSourceGraphic" />
      <feColorMatrix
         result="fbSourceGraphicAlpha"
         in="fbSourceGraphic"
         values="0 0 0 -1 0 0 0 0 -1 0 0 0 0 -1 0 0 0 0 1 0"
         id="feColorMatrix62771" />
      <feColorMatrix
         id="feColorMatrix62773"
         values="0.35 0 0 0.03375 0.325 0 0.35 0 0.03375 0.325 0 0 0.35 0.03375 0.325 0 0 0 1 0"
         in="fbSourceGraphic" />
    </filter>
    <mask
       maskUnits="userSpaceOnUse"
       id="mask62297">
      <path
         id="path62299"
         style="opacity:1;fill:#ffffff;fill-opacity:1;fill-rule:nonzero;stroke:none;stroke-width:0.352778"
         d="m 131.72707,29.131075 c -0.24687,0.522954 -0.46759,1.05902 -0.65863,1.605754 -0.0959,0.272971 -0.18555,0.548221 -0.26847,0.825897 -0.16602,0.554877 -0.30523,1.118733 -0.41429,1.688525 -0.0543,0.284815 -0.10128,0.571505 -0.14006,0.859088 -0.0394,0.287294 -0.0718,0.575893 -0.0975,0.86469 -0.0767,0.867358 -0.0905,1.741254 -0.0317,2.610046 0.0767,1.159003 0.26716,2.310039 0.56761,3.429858 0.154,0.559383 0.33481,1.110844 0.54194,1.652701 0.20728,0.541541 0.44072,1.073426 0.69979,1.59209 0.39038,0.777681 0.84211,1.5238 1.3456,2.232091 0.16792,0.235882 0.34142,0.46752 0.52046,0.695033 0.1792,0.227203 0.36459,0.450139 0.55552,0.667701 0.38119,0.434805 0.78463,0.849939 1.20748,1.244042 0.21119,0.196737 0.42718,0.388153 0.64804,0.573865 0.44169,0.372205 0.90185,0.721596 1.37786,1.046421 0.47583,0.325141 0.96751,0.625705 1.47324,0.900541 0.75805,0.412588 1.54682,0.766724 2.35617,1.059735 0.26981,0.09755 0.54185,0.188875 0.81626,0.272957 0.54804,0.168177 1.10364,0.308583 1.66509,0.420875 0.56078,0.111969 1.12672,0.196097 1.69524,0.251007 0.28401,0.02793 0.56923,0.04798 0.85402,0.06138 0.96627,0.04471 1.93344,0.003 2.8892,-0.11426 2.53652,-1.543387 5.48541,-1.880919 8.26984,-2.615895 0.12007,-0.150366 0.22047,-0.240253 0.37279,-0.319457 0.13476,-0.07032 0.42424,-0.276207 0.73136,-0.514796 l 0.81646,-0.833373 c 0.14382,-0.312634 0.21348,-0.695272 0.22231,-0.941222 0.16527,-0.172867 0.32735,-0.349356 0.48526,-0.52891 l 0.24816,-0.285916 c 0.12236,-0.145715 0.24086,-0.293985 0.35844,-0.443573 l 1.79745,-2.319883 c 0.0234,-0.109528 0.23845,-0.758591 0.2246,-0.822924 -0.003,-0.01269 -0.003,-0.04831 -0.002,-0.09216 0.22677,-0.4746 0.43347,-0.958896 0.61653,-1.450259 0.0962,-0.258343 0.18636,-0.518313 0.2709,-0.779914 0.0759,-0.234798 0.14399,-0.472119 0.2088,-0.709899 0.0281,-0.104082 0.0529,-0.208044 0.0791,-0.312268 0.0318,-0.126244 0.0627,-0.252152 0.0913,-0.378788 0.0315,-0.138527 0.0612,-0.27771 0.0892,-0.417124 0.0163,-0.08153 0.0312,-0.163246 0.0466,-0.245219 0.031,-0.165839 0.0615,-0.331854 0.0881,-0.498687 0.0329,-0.177846 0.0621,-0.355249 0.0893,-0.533148 0.008,-0.05203 0.0151,-0.103851 0.022,-0.155428 0.0749,-0.530949 0.12263,-1.062013 0.14219,-1.593387 0.003,-0.07122 0.006,-0.14233 0.007,-0.213655 0.002,-0.09186 0.009,-0.183739 0.009,-0.275405 6.3e-4,-0.06676 -0.004,-0.133876 -0.004,-0.200793 -5.2e-4,-0.0779 -0.003,-0.15574 -0.005,-0.233817 -0.003,-0.152208 -0.004,-0.304216 -0.0115,-0.456522 -0.005,-0.104503 -0.0164,-0.208704 -0.0237,-0.313038 -0.008,-0.108736 -0.0153,-0.217857 -0.025,-0.326887 -0.0119,-0.131257 -0.0254,-0.26233 -0.0409,-0.393684 -0.015,-0.131967 -0.0329,-0.264418 -0.0515,-0.396527 -0.0168,-0.118698 -0.0326,-0.237013 -0.0519,-0.355363 -0.035,-0.216906 -0.0755,-0.433372 -0.11963,-0.649972 -0.0203,-0.09879 -0.0422,-0.197887 -0.0644,-0.296485 -0.0368,-0.167163 -0.0767,-0.333815 -0.11905,-0.500896 -0.0217,-0.08535 -0.0419,-0.170711 -0.0651,-0.256024 -0.065,-0.242331 -0.13535,-0.484793 -0.21136,-0.726947 -0.0187,-0.05921 -0.0393,-0.118708 -0.0587,-0.178238 -0.0656,-0.201445 -0.13474,-0.402318 -0.2076,-0.603343 -0.0263,-0.07266 -0.0524,-0.145884 -0.0799,-0.218362 -0.0951,-0.252922 -0.19434,-0.50682 -0.30142,-0.760031 -0.0931,-0.220592 -0.19782,-0.432948 -0.29986,-0.647257 -0.14992,-0.314262 -0.30934,-0.620848 -0.47755,-0.920789 -0.58176,-1.035457 -1.2656,-1.992986 -2.05673,-2.866257 -0.70594,-0.779245 -1.49152,-1.495564 -2.35101,-2.152763 -0.0379,-0.02926 -0.0916,-0.05159 -0.12602,-0.08548 -0.0345,-0.0339 -0.0493,-0.07942 -0.0119,-0.153965 -1.09039,-0.621861 -2.18089,-1.24392 -3.27129,-1.865788 v 0 c -0.0258,0.02366 -0.0507,0.03447 -0.0753,0.04181 -0.13213,-0.06015 -0.26429,-0.120559 -0.39796,-0.177546 -0.11371,-0.04815 -0.2281,-0.09354 -0.34254,-0.139314 -0.10908,-0.04392 -0.21869,-0.08677 -0.32898,-0.128186 -0.006,-0.0024 -0.0122,-0.0044 -0.0183,-0.0071 -0.1523,-0.05735 -0.30517,-0.111843 -0.45931,-0.164602 -0.0771,-0.02692 -0.15466,-0.05246 -0.23226,-0.0781 -0.13447,-0.04405 -0.26858,-0.08833 -0.40413,-0.129385 -0.20219,-0.06102 -0.40523,-0.118716 -0.60986,-0.172284 -0.0862,-0.02314 -0.17368,-0.04364 -0.26053,-0.06473 -0.16395,-0.04062 -0.32812,-0.07863 -0.49294,-0.114177 -0.0781,-0.01649 -0.15697,-0.03293 -0.23494,-0.04894 -0.24023,-0.04799 -0.48084,-0.09221 -0.72332,-0.129908 -0.2752,-0.04289 -0.55191,-0.07862 -0.82962,-0.10821 -0.55499,-0.05936 -1.11394,-0.09202 -1.67429,-0.09671 -0.27993,-0.0024 -0.56011,0.0022 -0.84067,0.01399 -0.28041,0.01146 -0.56083,0.02972 -0.84046,0.05489 -0.83947,0.07602 -1.67557,0.213688 -2.49929,0.411423 -0.22847,0.05533 -0.45525,0.118025 -0.68156,0.182633 -0.28844,0.08211 -0.57488,0.170753 -0.85903,0.268254 -1.3692,0.467676 -2.68772,1.105287 -3.90759,1.906156 -0.23883,0.156618 -0.47351,0.320236 -0.7046,0.489209 -0.59597,0.435404 -1.16134,0.914092 -1.69759,1.42418 -0.10094,0.09604 -0.20279,0.190054 -0.30104,0.288561 -0.3937,0.392933 -0.77002,0.804342 -1.12497,1.234397 -0.54973,0.665548 -1.05078,1.373341 -1.49518,2.116353 -0.29622,0.495623 -0.56883,1.00573 -0.81555,1.528359 z m 26.48964,21.624129 c -0.0134,0.0015 -0.003,0.02049 -0.005,0.03091 0.0157,-0.0045 0.0309,-0.0098 0.0465,-0.01431 -0.009,-0.0018 -0.0353,-0.01715 -0.0414,-0.01651 z"
         sodipodi:nodetypes="cccccccccccccsccccccccccccccccccscsscscscccccscssscccccccscccsccccscscscccccccccccccccccccccccscccscccccc" />
    </mask>
    <filter
       style="color-interpolation-filters:sRGB;"
       inkscape:label="Brilliance"
       id="filter62413"
       x="0"
       y="0"
       width="1"
       height="1">
      <feColorMatrix
         values="1 -0 -0 0 0.1 -0 1 -0 0 0.1 -0 -0 1 0 0.1 0 0 0 1 0 "
         id="feColorMatrix62411" />
    </filter>
    <mask
       maskUnits="userSpaceOnUse"
       id="mask65409">
      <path
         id="path65411"
         style="opacity:1;fill:#ffffff;fill-opacity:1;fill-rule:nonzero;stroke:none;stroke-width:0.353444"
         d="m 73.937791,174.34915 c 1.40941,0.81987 2.705925,1.80688 8.386796,6.34516 l 6.445967,5.11243 c 2.153233,1.69903 4.292696,3.41465 6.476727,5.05975 2.178961,1.65303 4.389632,3.26229 6.629999,4.82149 1.12148,0.77664 2.25433,1.53878 3.40719,2.25216 0.28847,0.17769 0.57809,0.35215 0.8696,0.51818 l 1.17642,1.0688 -5.2e-4,4e-5 c 0.57947,0.57404 1.20665,1.00048 1.72348,1.57656 2.75121,3.06651 4.7466,6.60423 6.57796,10.2568 1.11676,2.22773 2.52323,4.33782 3.15929,6.74789 1.06804,4.04512 2.10725,8.04872 2.29845,12.07407 0.12941,2.72786 -0.11562,5.39794 0.54755,8.24786 0.32599,1.40057 0.68278,2.80112 1.05128,4.30778 -0.75748,-0.72106 -1.03579,-1.69064 -1.23109,-2.45312 -0.75824,-2.95942 -1.85384,-5.90287 -2.39174,-8.87162 -0.45621,-2.5196 -0.72661,-5.02825 -1.40108,-7.56046 -0.57939,-2.17638 -1.48403,-4.2792 -2.56103,-6.34837 0.55256,2.5332 1.4088,5.03875 1.92259,7.56423 0.45849,2.25696 0.91879,4.50132 1.11758,6.73459 0.35812,4.02479 0.15377,7.89223 0.093,11.78599 -0.0469,3.02735 -0.0951,6.0107 0.52401,9.17052 0.50602,2.58399 1.42259,5.13718 2.25591,7.69742 0.52627,1.6166 0.91631,3.23293 0.85714,5.02117 -0.68342,-0.9321 -0.46473,-1.62723 -0.57285,-2.29817 -0.22746,-1.41254 -0.59557,-2.67133 -1.6852,-3.86488 -0.91841,-1.00595 -1.5303,-2.29383 -2.2627,-3.52066 0.28561,2.42424 0.0119,4.59099 -0.5407,6.64155 -0.62047,2.30161 -1.83405,4.08839 -3.44248,5.44987 -0.77531,0.6563 -1.50572,1.37869 -2.2983,2.01812 -1.94943,1.57157 -3.11505,3.8675 -3.24312,6.92658 -0.007,0.16468 -0.0573,0.31274 -0.45248,0.27212 -0.26908,-3.20898 0.57487,-5.85201 1.24607,-8.5373 l 3.26634,-5.72471 c 2.59507,-2.94395 2.92964,-6.9465 1.74815,-11.75335 -0.39493,-1.60542 -0.76685,-3.35199 -0.41899,-4.90927 0.32078,-1.43533 -0.0175,-3.09871 -0.008,-4.6449 0.0138,-2.19052 0.0789,-4.36813 0.004,-6.58182 -0.11594,-3.42761 -0.56955,-6.91712 -1.47172,-10.4442 -1.05648,-4.13006 -2.79708,-8.10951 -4.95514,-11.9529 -1.08159,-1.9265 -2.51815,-3.60825 -3.94984,-5.26139 l -0.4488,-1.42684 c -0.70031,-2.48478 -2.627488,-3.8458 -4.471486,-5.30077 -1.839056,-1.45076 -3.796935,-2.6524 -5.512325,-4.36775 -0.152311,-0.15222 -0.374778,-0.20612 -0.569874,-0.30851 -2.838524,4.68937 -0.89575,10.128 1.933496,15.68431 0.20818,2.74591 -0.505761,4.56337 -0.992758,6.60931 -0.670011,1.51307 -1.503496,2.89709 -2.025466,4.53197 -0.240597,0.75397 -0.355586,1.53811 -0.440566,2.35432 -0.02395,0.22752 0.05671,0.5448 -0.415285,0.48658 -0.150061,-1.7025 -0.117882,-3.35243 0.11811,-4.88629 0.31599,-2.05646 0.827598,-4.00008 0.472717,-6.32878 -0.286169,-1.87889 -0.640116,-3.71067 -1.826118,-5.51639 -0.516004,-0.42846 -1.059406,-0.64689 -1.532791,-0.19083 -0.721767,1.92725 -0.611174,4.23567 -0.583915,6.46946 0.02388,1.982 -0.637129,3.52435 -1.177123,5.13561 -0.254754,0.76045 -0.424521,1.70841 -1.298489,2.23332 0.95879,-2.8197 0.280573,-5.86476 -0.292448,-9.09539 -0.851039,0.58497 -0.852015,1.57978 -0.877623,2.40419 -0.08092,2.60591 0.14699,5.32184 -0.02594,7.88882 -0.190027,2.81468 -0.279097,5.63437 -1.326918,8.14814 -1.01356,2.43133 -2.783867,3.86355 -4.314559,5.63482 -0.918465,1.06333 -1.897172,2.0494 -2.280233,3.63157 0.154037,-2.64127 0.727189,-5.03253 1.389562,-7.42392 -2.141511,1.99314 -4.74232,3.4106 -6.405648,6.07008 -0.61854,-0.21414 -0.399432,-0.63692 -0.277195,-0.97722 0.694657,-1.94371 1.412106,-3.87202 2.109962,-5.81349 0.07166,-0.19976 -0.09046,-0.41101 -0.384381,-0.76456 -0.798294,1.52915 -1.596414,3.00977 -2.354401,4.52363 -0.683002,1.36462 -1.08628,2.94277 -1.967658,4.16341 -0.702129,0.97133 -1.524313,1.75854 -2.53973,2.30988 l -3.092107,1.29812 -2.369342,0.25534 c -0.387255,-0.13494 -0.718209,-0.19106 -1.005306,-0.18544 l -0.01229,9.6e-4 -1.774658,0.26596 c -2.104729,-1.33808 -4.129815,-2.79312 -6.196271,-4.10059 l -0.196614,-0.12449 -0.18589,-0.10647 c -0.132558,-0.064 -0.265259,-0.12889 -0.406091,-0.18512 -0.277813,-0.11916 -0.570905,-0.2155 -0.865051,-0.30692 -0.591329,-0.17978 -1.197823,-0.3127 -1.80648,-0.41248 -1.219172,-0.19365 -2.446853,-0.25521 -3.663929,-0.24378 -0.609174,0.003 -1.215682,0.0265 -1.81987,0.0469 -0.603102,0.0249 -1.208732,0.0467 -1.791541,0.10909 -0.144866,0.0164 -0.288493,0.0354 -0.421292,0.0607 -0.06418,0.0121 -0.129928,0.0281 -0.173859,0.0429 l -0.0157,0.005 -0.005,0.007 c -0.126363,0.17687 -0.253234,0.45364 -0.353019,0.70852 -0.201972,0.52318 -0.365517,1.07925 -0.410835,1.6213 -0.02195,0.26561 -0.0074,0.53481 0.06896,0.72478 0.01309,0.054 0.04097,0.0881 0.06485,0.12379 0.02213,0.0423 0.04426,0.0651 0.08253,0.0957 0.07232,0.0591 0.180616,0.12002 0.301723,0.16813 l 0.113789,1.28331 c -0.08723,0.11981 -0.156806,0.23929 -0.208576,0.3531 -0.04234,0.1174 -0.06281,0.21807 -0.07883,0.33196 -0.01012,0.10023 0.01525,0.29191 0.04563,0.45581 0.03365,0.16864 0.08045,0.34063 0.160377,0.49817 0.15399,0.31799 0.400893,0.59682 0.681637,0.80733 0.06917,0.0529 0.140098,0.10268 0.209046,0.14342 0.0647,0.0385 0.148169,0.081 0.162814,0.0732 l 0.02201,-0.002 c 0.01119,-8.6e-4 0.01498,-9e-4 0.03906,0.001 l 0.212712,0.67846 c 0.02253,0.157 0.03266,0.30926 0.03616,0.45811 -9.21e-4,0.25144 -7.1e-5,0.49661 -0.06333,0.73041 -0.06419,0.23244 -0.186519,0.46694 -0.18109,0.71394 9.11e-4,0.12222 0.02923,0.24406 0.0784,0.35215 0.04177,0.0929 0.13054,0.13145 0.231288,0.15897 0.101042,0.0272 0.213835,0.0294 0.327198,0.0389 l 0.293785,0.70826 c -0.01357,-0.003 -0.02757,-0.008 -0.04092,-0.0125 -0.03635,0.1777 -0.03871,0.36095 -0.0096,0.53607 l 0.306687,1.92299 c -0.0053,-0.008 -0.0079,-0.0163 -0.0132,-0.0236 0.01118,0.0764 0.01654,0.15301 0.01424,0.22936 0.01879,0.0924 -0.02099,0.17264 -0.03807,0.25806 -0.004,0.16392 -0.06714,0.31618 -0.07209,0.48072 -0.0045,0.0119 -0.0079,0.0247 -0.01105,0.037 l 0.195338,1.19261 c -0.225937,1.06815 -0.309593,2.12759 -0.297626,3.19222 -0.08129,0.27706 -0.160326,0.50982 -0.182848,0.76332 -0.232665,2.61919 0.04223,5.3621 0.444478,8.13124 0.368039,2.53434 0.616047,5.05356 0.21396,7.3599 -0.528716,3.03245 -2.180317,5.16263 -3.882917,7.22591 -0.04016,0.0485 -0.132106,0.0411 -0.212004,0.0632 -0.349801,-0.0964 -0.693923,-0.22538 -0.964279,-0.87796 0.0582,-0.29058 0.07459,-0.76766 0.240227,-1.12817 0.703392,-1.52962 0.668699,-3.39251 0.420753,-5.23469 -0.427067,-3.17122 -1.381938,-6.39833 -1.639324,-9.58779 -0.745801,2.59276 -1.093366,5.46347 -3.346198,6.82883 -0.139799,-2.59689 0.878503,-4.6614 0.846997,-7.05938 -0.281643,-0.60482 -0.851998,-0.54723 -0.997898,-1.01676 0.125579,-4.90614 0.07981,-9.84078 0.751977,-14.54433 0.597694,-0.88309 1.024353,-1.95437 1.257414,-3.10432 0.02819,0.0446 0.05559,0.0893 0.0842,0.13432 1.148337,-3.84215 3.2856,-6.62455 5.874095,-9.15717 -0.298878,-1.01468 -0.571107,-2.12578 -0.855253,-3.19956 -1.088997,-0.24136 -2.234841,-0.12904 -3.354929,0.0511 -0.971665,0.15743 -1.936672,0.38449 -2.96134,0.51426 -0.263112,0.0771 -0.516184,0.17713 -0.758177,0.29496 -0.08706,-0.33382 -0.174772,-0.66811 -0.26574,-1.00221 0.112825,-0.002 0.226158,-0.005 0.339023,-0.0124 1.128679,-0.0953 2.274445,-0.39228 3.457763,-0.56876 0.723346,-0.10731 1.472791,-0.19385 2.239447,-0.175 -1.926573,-1.07559 -3.703271,-2.47934 -5.453463,-3.99888 9.507109,4.55232 5.366994,-0.003 9.561226,6.60434 0.165624,0.48409 0.296127,0.85582 0.318863,0.93415 0.03833,0.1324 0.04839,1.33853 0.03134,1.95393 0.296869,0.0212 0.593283,0.0463 0.89021,0.0745 l 0.0067,-5.2e-4 c 0,0 -0.20569,-0.78412 -0.309372,-1.11037 -0.05575,-0.17621 -0.07048,-0.36616 -0.09596,-0.60482 l 1.390352,-0.0269 -0.100667,-0.43108 c -0.421488,-1.39166 -1.177359,-1.94991 -1.745849,-3.08334 0.01781,-0.36003 0.03356,-0.82582 0.03182,-1.46074 l -0.220517,-2.77984 c 0.03709,-0.009 0.0743,-0.0188 0.111071,-0.0275 l 0.348407,-0.0911 c 0.407608,-0.1102 0.81568,-0.23321 1.219478,-0.36452 l 0.704124,-0.31483 0.01578,0.071 c 1.115614,-0.39541 2.173096,-0.83987 3.069873,-1.24714 l 0.804744,-0.37455 c 1.121362,-0.5353 1.841412,-0.93433 1.841417,-0.9343 1.528945,-1.19649 2.664773,-2.51573 3.545301,-4.1196 0.659243,-1.20076 1.125236,-2.55181 1.207742,-4.0658 0.150265,-2.76365 0.864754,-5.2401 1.210816,-7.89498 0.134659,-1.0357 0.159884,-2.1238 0.29939,-3.16879 l 0.07276,-0.47029 c 0.01185,-0.0681 0.02145,-0.13667 0.03451,-0.20384 0.57975,-2.95419 1.893956,-5.31155 3.523664,-7.42883 0.310187,-0.40256 0.716598,-0.65217 1.129762,-0.82997 0.322273,-0.59017 -0.220901,-1.16016 -0.369356,-1.69495 0.310806,-1.2672 1.595827,-1.28908 2.25387,-2.09322 -0.579863,-0.96305 -1.1031,-1.87725 -1.66715,-2.76107 -0.250994,-0.47172 -0.595562,-0.89666 -0.890238,-1.34992 -0.394533,-0.6071 -0.663738,-1.26494 -0.908865,-1.93198 -0.114591,-0.40796 -0.280668,-0.82331 -0.340871,-1.23624 0.01014,-0.22107 0.03871,-0.43997 0.08354,-0.65446 0.0071,-0.0324 0.0153,-0.0644 0.02203,-0.0965 -0.0046,0.0219 -0.0062,0.0295 -0.0076,0.0362 0.0041,-0.0176 0.01198,-0.0521 0.01499,-0.0635 0.01952,-0.0731 0.04102,-0.14542 0.06387,-0.21765 0.04623,-0.14557 0.0992,-0.28881 0.157233,-0.42923 0.06128,-0.14854 0.128579,-0.2939 0.202271,-0.43589 0.01529,-0.0298 0.03125,-0.0585 0.04726,-0.088 0.0068,-0.0126 0.01412,-0.0264 0.02077,-0.0378 0.03587,-0.0597 0.07185,-0.11887 0.109362,-0.17721 0.01513,-0.0235 0.03166,-0.0457 0.04792,-0.0682 l 2.022049,-0.32196 -6.14e-4,0.003 c 0.213732,0.0519 0.43299,0.12812 0.659925,0.24124 l 0.324593,1.07355 c 3.536977,2.90607 5.962697,6.25729 7.01511,10.5872 0.714529,-1.23262 0.01314,-2.89232 0.341287,-4.26103 0.849285,0.88192 1.351576,2.35858 2.72375,2.4559 -0.05396,-0.63191 -0.09992,-1.1653 -0.145563,-1.69882 0.322359,-0.25047 0.439384,0.34246 0.709645,0.39606 0.707347,-0.43395 0.456407,-1.57607 0.880586,-2.23104 0.191995,-0.29677 0.254616,-0.74176 0.499563,-0.95935 2.665747,-2.36773 2.632063,-5.93646 1.305615,-10.23066 -0.155191,-1.33551 -0.422647,-2.59176 -1.283812,-3.43007 -0.321732,-0.62493 -0.525557,-1.2773 -0.733448,-1.91792 z m -14.3187,10.29423 -0.190902,0.0306 c 0.07059,-0.0184 0.137591,-0.0331 0.203202,-0.0473 -0.0039,0.006 -0.0082,0.0111 -0.01229,0.0167 z m 21.37593,0.91404 c -0.0806,1.21776 -0.693373,1.70006 -1.01289,2.56246 -0.2711,0.73172 -0.559693,1.45786 -0.767139,2.21484 -0.249939,0.91205 -0.429889,1.84908 -0.57248,2.79257 -0.06436,0.42586 -0.05529,0.86772 -0.127409,1.29169 -0.09916,0.58292 -0.208738,1.15498 -0.418528,1.71356 -0.05837,0.51422 0.566995,0.94679 1.023247,0.84559 0.442887,-0.0397 0.851227,-0.32304 0.920329,-0.77642 0.156573,-0.51857 0.395961,-1.05527 0.906576,-1.29391 0.53254,-0.38718 0.718937,-1.15877 1.404714,-1.35692 0.906848,-0.3797 1.689786,-0.99916 2.242883,-1.8027 0.480495,-0.58414 0.878228,-1.25574 1.011189,-2.02859 0.176654,-0.63456 0.104782,-1.33872 -0.03632,-1.99701 -0.34513,-0.72821 -0.857191,-1.45176 -1.581607,-1.84641 -1.003751,-0.47351 -1.964691,-0.17954 -2.992565,-0.31875 z m 8.724506,1.54647 c 0.130954,0.10882 0.261692,0.21802 0.392545,0.32708 0.09794,0.0816 0.196223,0.1627 0.294475,0.24412 -0.09813,-0.0814 -0.196039,-0.16259 -0.293962,-0.24416 -0.13095,-0.10913 -0.262013,-0.21816 -0.393058,-0.32704 z m -47.003203,51.80507 c 0.07088,0.007 0.141969,0.0141 0.212849,0.0211 0.308428,0.0318 0.616589,0.064 0.924471,0.0969 -0.307874,-0.0339 -0.615759,-0.0669 -0.924214,-0.0985 -0.07115,-0.007 -0.142082,-0.013 -0.213106,-0.0195 z" />
    </mask>
    <mask
       maskUnits="userSpaceOnUse"
       id="mask71043">
      <path
         id="path71045"
         style="fill:#ffffff;fill-opacity:1;fill-rule:nonzero;stroke:none;stroke-width:0.3528"
         d="m -125.42004,120.7957 c -2.2612,0.34468 -4.51099,0.75741 -6.75809,1.1761 -2.159,0.40631 -4.31426,0.83017 -6.46778,1.26234 l -0.44631,0.36379 4.3e-4,2.9e-4 c -0.30367,0.31183 -0.72196,0.72097 -1.30853,1.31454 -1.88223,1.90357 -3.84862,3.82062 -4.87878,6.21813 -0.5721,1.33108 -1.00146,2.74057 -1.01734,4.01074 -0.007,0.53563 -0.0886,1.05761 -0.22065,1.57029 l 0.47645,0.57436 c 0.67641,0.85709 0.7141,1.61456 -0.20544,3.16727 -0.0681,0.11497 -0.13623,0.22997 -0.20443,0.34501 l 0.46392,0.41628 c 0.28695,0.0583 0.60166,0.14467 0.72191,0.53105 -0.21712,0.37082 -0.45417,0.73325 -0.70312,1.09085 l 0.37962,0.37063 c 0.21217,-0.1121 0.49951,-0.19182 0.67567,-0.17925 0.63308,0.0454 1.21297,-0.1877 1.90454,-0.41357 -0.42318,0.49425 -0.87593,0.96548 -1.33416,1.43016 l 0.20446,0.62753 c 0.11405,0.55795 0.20585,1.00975 0.32662,1.60085 -0.0951,0.10225 -0.18436,0.20872 -0.27599,0.31347 0.16516,0.0594 0.33669,0.10517 0.51414,0.13804 0.82871,-1.05845 1.87547,-2.02883 2.91764,-2.94681 1.88583,-1.66031 4.13063,-2.60447 6.36113,-3.55596 0.092,-0.039 0.21828,0.0422 0.63327,0.13682 l 1.88056,-0.24548 0.37561,-0.6546 c 0.30369,-0.17505 0.41956,0.0816 0.61702,0.12972 0.1752,0.0429 0.29745,0.19263 0.38512,0.25363 l 0.73244,-0.16888 c 0.0508,0.0448 0.10226,0.0905 0.15565,0.14153 1.02805,0.97912 2.09603,1.34945 3.35109,0.37736 1.27836,-0.99029 0.43769,-3.53692 0.43769,-3.53692 -0.21823,-0.5758 -0.48921,-1.12382 -0.81491,-1.63893 -0.81438,-1.28912 -0.69356,-2.85258 -1.07096,-4.16015 0.35516,-0.55277 0.73056,-0.24206 0.96712,-0.40851 0.36911,-0.96625 -0.93406,-1.82053 0.67737,-2.78754 -0.23067,-0.34943 -0.4225,-0.64004 -0.55729,-0.84379 0.26788,-1.50751 0.53542,-2.90579 0.75638,-4.2959 z m -1.74576,5.01453 c 0.0775,0.48827 -0.35592,1.20318 0.21292,1.66267 -0.87902,0.40035 -0.48519,0.97518 -0.69537,1.48929 -0.76523,0.24849 -1.46887,-0.17055 -2.03719,0.29113 -0.54288,0.0268 -0.34432,-0.49873 -0.87073,-0.41003 -0.8847,0.48244 -1.8214,-0.11314 -2.76959,0.4325 -0.51648,-0.16458 -0.61667,-0.56299 -0.80037,-1.00805 -1.82404,0.5403 -2.70596,-1.25755 -4.80969,-0.56765 0.50083,-0.54436 0.89048,-0.76591 1.3071,-0.95101 0.26815,-0.32617 0.0927,-0.59453 -0.009,-0.95803 0.82007,-0.13275 1.54327,-0.44084 2.15972,-0.37148 0.40249,-0.17361 0.25656,-0.54087 0.77966,-0.67964 0.50313,-0.0824 1.13658,-0.0621 1.46733,0.5205 1.58019,-1.05327 2.40878,-0.36721 3.02515,0.34373 0.61156,0.31144 0.73627,-0.484 0.94008,-0.41156 0.77606,0.15461 0.82906,0.73878 1.23628,0.95607 0.37916,0.1613 0.4029,-0.47624 0.86394,-0.33844 z m -21.78618,3.38013 c -0.13139,-0.10568 -0.48038,-0.24999 -0.95954,-0.4481 l -1.78492,-0.32308 c -0.31341,0.25943 -0.64149,0.46738 -0.96753,0.70006 -0.22001,0.15701 -0.43736,0.31632 -0.65121,0.478 l -1.67995,2.21179 c 0.0892,0.93634 -0.36996,1.82522 0.21554,2.3313 l 0.0406,0.78174 c 0.27009,0.4792 0.42914,0.76146 0.6156,1.09252 l 0.52108,0.69873 0.66387,0.94252 -0.0117,0.54517 c 0.23126,0.78212 0.48143,1.51522 0.26727,2.3665 l 1.12797,1.37776 c 0.2258,0.16487 0.76544,-0.21311 1.06801,-0.7131 0.13716,-0.0569 0.2445,-0.21991 0.25495,-0.40956 0.0572,-0.22661 -0.0517,-0.45355 0.0174,-0.67346 0.0562,-0.30395 0.108,-0.60061 0.17323,-0.90186 0.0789,-0.24124 0.10085,-0.50084 0.16406,-0.74833 0.0802,-0.0378 0.0315,-0.30279 0.0981,-0.4843 0.0123,-0.11973 0.25718,-0.50123 0.16559,-0.4029 0.0379,-0.14448 0.11163,-0.28 0.19535,-0.41119 1.03821,-1.34121 0.57478,-1.47606 0.74976,-2.36656 0.10061,-0.512 -0.12371,-1.06098 0.0218,-1.56102 -0.24892,-0.0959 -0.13644,-0.34273 -0.1637,-0.52766 0.008,-0.0404 0.0172,-0.0809 0.0291,-0.12081 -0.0209,-0.20313 0.0428,-0.41259 0.0222,-0.62389 0.0304,0.0447 0.0194,-0.16687 0.0507,-0.22036 -0.0168,-0.14282 -0.0349,-0.33749 -0.0785,-0.51268 0.0892,-0.60089 0.28459,-0.99254 0.44383,-1.50198 z"
         sodipodi:nodetypes="ccccccccccsccccccccccccccccccccccccccccccccccccccccccccccccccsccccccccccccccccccscccccccc" />
    </mask>
    <filter
       style="color-interpolation-filters:sRGB;"
       inkscape:label="Brilliance"
       id="filter71203"
       x="0"
       y="0"
       width="1"
       height="1">
      <feColorMatrix
         values="1 -0 -0 0 0.68 -0 1 -0 0 0.68 -0 -0 1 0 0.68 0 0 0 1 0 "
         id="feColorMatrix71201" />
    </filter>
  </defs>
  <g
     inkscape:label="Layer 1"
     inkscape:groupmode="layer"
     id="layer1"
     transform="translate(107.63083,-29.39642)">
    <path
       id="path9043"
       style="fill:#ffffff;fill-opacity:1;fill-rule:nonzero;stroke:none;stroke-width:2.5;stroke-dasharray:none;stroke-opacity:1"
       d="M 142.35339 36.906556 C 134.14676 44.661928 125.91499 52.389064 117.66395 60.093771 L 117.6624 60.093771 L 117.44742 60.294792 C 117.62059 67.257962 117.71197 74.217885 117.77557 81.174138 L 117.77557 81.175688 L 117.77557 81.179823 C 117.80477 87.831264 117.85107 94.494216 117.80657 101.16413 C 125.8654 97.547695 133.93668 93.958141 142.0175 90.392697 L 142.01543 90.277458 L 142.01543 90.275391 C 141.93915 80.75418 142.01817 71.241975 142.05057 61.738632 L 142.05057 61.736565 L 142.05057 61.734498 C 142.10924 53.461474 142.20666 45.184348 142.35339 36.906556 z M 114.75198 62.800583 L 101.78688 74.859278 C 97.480433 78.872787 93.146751 82.848866 88.822295 86.830124 C 88.985746 91.569177 89.089589 96.306234 89.144239 101.04114 C 89.193689 105.39004 89.202965 109.74531 89.173695 114.10184 L 99.886736 109.22256 L 114.42177 102.67774 L 114.42952 103.24049 C 114.35316 95.875728 114.43031 88.521986 114.46311 81.179823 L 114.46311 81.175688 L 114.46311 81.173621 C 114.51908 75.05263 114.61664 68.927287 114.75198 62.800583 z M 86.089645 89.345732 C 86.009784 89.419443 85.929687 89.492661 85.849867 89.566391 L 85.8478 89.570525 L 69.83224 104.18927 L 61.822393 111.49425 L 60.18735 112.99804 C 60.347165 115.66383 60.456121 118.32736 60.509811 120.98618 C 60.551241 123.06098 60.548767 125.14495 60.539267 127.22869 C 68.336078 123.62962 76.131093 120.02349 83.959026 116.47638 L 85.79509 115.64077 C 85.74674 110.7701 85.768538 105.90227 85.824028 101.04114 C 85.868878 97.144199 85.973586 93.245155 86.089645 89.345732 z M 142.04695 93.429721 C 133.78812 97.336329 125.52154 101.22835 117.23606 105.08017 L 117.789 104.82437 L 117.66395 114.26566 L 117.66395 114.26773 C 117.60961 117.94045 117.55826 121.60952 117.54096 125.27532 C 117.51015 132.56758 117.56826 139.86169 117.65826 147.16029 L 132.4863 147.52358 L 140.44498 147.74992 L 140.44705 147.75199 L 142.16219 147.80676 C 142.16419 147.63838 142.16381 147.47171 142.16581 147.30292 C 142.19902 142.54303 142.26768 137.79101 142.26968 133.04901 L 142.26968 133.04694 L 142.26968 133.04487 C 142.28758 128.29051 142.3078 123.54165 142.2733 118.79716 L 142.2733 118.7951 L 142.23816 111.66788 L 142.16219 104.53912 L 142.04695 93.429721 z M 114.47086 106.36537 L 101.36158 112.44923 L 89.144756 118.05664 L 89.029517 124.20872 C 88.975211 126.77721 88.923581 129.34137 88.906011 131.90024 L 88.906011 131.90231 C 88.867649 136.80487 88.931842 141.71482 89.017632 146.62906 C 97.5435 146.74726 106.06563 146.92999 114.58196 147.0957 C 114.6715 139.81925 114.7279 132.54544 114.6972 125.27532 C 114.67994 121.60953 114.62891 117.93831 114.57421 114.26566 L 114.47086 106.36537 z M 57.408192 115.55499 L 53.845619 118.82817 L 53.843552 118.83024 C 48.557987 123.6724 43.307567 128.55633 38.052784 133.44175 L 37.856414 133.62468 C 52.073277 143.70885 46.987303 156.64597 39.912102 162.40174 L 54.058525 175.37924 L 57.412326 178.46691 C 57.245484 174.56 57.115965 170.65474 57.072295 166.75444 C 55.408483 165.95165 53.741708 165.15044 52.078285 164.33599 L 52.078285 164.33444 L 52.076218 164.33444 C 49.450657 163.04267 46.827872 161.74761 44.20693 160.44579 L 42.818385 159.75435 L 43.787318 158.54306 C 43.986953 158.2936 44.177157 158.03917 44.359376 157.77773 L 44.965024 156.90853 L 45.922071 157.36329 C 48.5048 158.59411 51.085916 159.83028 53.664234 161.07055 L 53.664234 161.07262 L 53.665785 161.07262 C 54.798079 161.62 55.924017 162.17249 57.050591 162.72472 C 57.058221 160.50053 57.074101 158.27808 57.101751 156.06466 C 57.125653 153.80568 57.190721 151.54962 57.25988 149.29504 C 55.787616 149.25933 54.314239 149.22349 52.843613 149.19169 C 51.328973 149.15929 49.811317 149.12971 48.292986 149.09971 L 47.127166 149.07852 L 47.070322 147.91218 C 47.065142 147.80579 47.056917 147.6901 47.048617 147.56492 L 46.959217 146.21513 L 48.312623 146.2327 C 49.841293 146.2525 51.367556 146.27419 52.892705 146.29109 C 54.368017 146.30759 55.845289 146.31993 57.322409 146.33243 C 57.398477 143.73435 57.463339 141.14263 57.427829 138.56288 L 57.427829 138.56082 C 57.410419 137.11888 57.361156 135.66833 57.306906 134.20914 L 57.306906 134.20501 L 57.252129 132.58392 C 56.031904 133.13685 54.811195 133.69034 53.591887 134.24428 L 53.58982 134.24428 L 43.665878 138.71688 L 43.056613 138.03113 C 42.86884 137.82043 42.67801 137.61585 42.484555 137.4198 L 41.238119 136.15631 L 52.150115 131.09409 L 52.152182 131.09409 C 53.822342 130.3259 55.491951 129.55379 57.162212 128.78312 C 57.125662 126.17809 57.137811 123.57832 57.189601 120.98825 L 57.189601 120.98618 C 57.226218 119.17781 57.325782 117.36656 57.408192 115.55499 z M 85.851417 119.56818 L 85.455059 119.75008 C 77.151053 123.58007 68.819421 127.34113 60.495859 131.11114 L 60.392506 134.20501 L 60.392506 134.20708 C 60.337912 135.66607 60.288643 137.11701 60.271583 138.55875 L 60.271583 138.56082 L 60.271583 138.56237 C 60.235961 141.15064 60.300313 143.75075 60.377003 146.35724 C 68.488516 146.42116 76.604665 146.45891 84.724871 146.56446 C 84.726171 146.56448 84.727188 146.56445 84.728488 146.56446 C 85.138418 146.56896 85.543641 146.57603 85.951152 146.58203 C 86.03677 141.68359 86.100497 136.78932 86.062257 131.90231 L 86.062257 131.90024 C 86.045044 129.34148 85.994267 126.77904 85.939267 124.21079 L 85.939267 124.20924 L 85.851417 119.56818 z M 60.443149 149.36894 C 60.511116 151.59714 60.573961 153.82791 60.597661 156.06052 L 60.597661 156.06414 C 60.632471 158.8642 60.671657 161.67475 60.662257 164.49205 C 63.630902 165.95078 66.596203 167.41392 69.560422 168.87886 C 74.856538 171.49002 80.133473 174.14036 85.396664 176.8143 L 85.398215 176.81636 C 85.490174 176.86283 85.583637 176.90836 85.675717 176.95486 C 85.670417 172.20565 85.702338 167.46056 85.736178 162.72058 C 85.761599 158.47226 85.827687 154.22758 85.904127 149.98234 C 85.492612 149.97494 85.083837 149.96809 84.670094 149.95909 C 76.588693 149.79934 68.513855 149.57006 60.443149 149.36894 z M 89.066208 150.03919 C 89.142194 154.26556 89.206956 158.49124 89.232606 162.72058 C 89.268936 167.85853 89.312892 173.00139 89.298752 178.15013 L 89.298752 178.1522 L 89.298752 178.15427 C 89.297652 178.36117 89.296734 178.56443 89.295134 178.76973 C 93.262719 180.75995 97.237233 182.73378 101.23446 184.65258 L 101.23652 184.65258 C 103.88742 185.92281 106.55737 187.1656 109.23242 188.40635 L 114.30653 190.77158 C 114.29553 183.62689 114.33582 176.48506 114.37112 169.34757 C 114.39762 163.03288 114.46366 156.7188 114.54476 150.40609 C 106.05639 150.29328 97.562545 150.19927 89.066208 150.03919 z M 117.69133 150.44329 C 117.77215 156.74311 117.83908 163.04408 117.86548 169.3455 L 117.86548 169.34757 C 117.90218 176.69332 117.9482 184.04303 117.9337 191.39635 L 117.9337 191.39842 C 117.9327 191.75998 117.9295 192.11764 117.9275 192.47639 C 123.0442 194.90863 128.12371 197.40695 133.18548 199.93175 L 133.18755 199.93175 L 133.18961 199.93381 C 136.09404 201.39302 138.99352 202.86723 141.89037 204.34957 C 141.87587 194.83965 141.92074 185.33269 141.95704 175.82831 C 141.98427 167.41819 142.05207 159.00977 142.13687 150.60142 L 140.40054 150.59987 L 132.43772 150.56422 L 117.69133 150.44329 z M 60.585776 168.44943 C 60.524501 172.64242 60.424756 176.83785 60.206987 181.03884 L 70.011557 190.06465 L 85.923764 204.79295 L 85.925831 204.79295 L 86.101531 204.95728 C 85.875881 196.75389 85.744357 188.55217 85.693287 180.35568 C 85.145544 180.09807 84.597689 179.8398 84.05101 179.58415 C 78.698084 177.09337 73.355469 174.57743 68.031316 172.02131 C 65.548974 170.83307 63.066657 169.64216 60.585776 168.44943 z M 89.251726 182.04705 C 89.191244 190.52232 89.084024 199.00093 88.824362 207.48426 L 101.81633 219.54295 L 101.8184 219.54502 L 114.76386 231.62904 C 114.51136 219.23321 114.37946 206.83949 114.32616 194.44939 L 107.88263 191.18344 L 107.88108 191.18344 C 105.25345 189.84442 102.62841 188.51079 99.992156 187.20901 C 96.431711 185.45345 92.843564 183.74663 89.251726 182.04705 z M 117.89649 196.2188 C 117.83633 208.85261 117.72086 221.48875 117.44329 234.12863 L 117.67015 234.33998 L 133.48624 249.17164 L 133.4883 249.1737 L 142.36166 257.54684 C 142.0925 240.91473 141.96411 224.28568 141.91001 207.65841 C 138.50914 206.0948 135.12026 204.51028 131.73854 202.91813 L 131.73647 202.91813 L 131.7344 202.91813 C 127.10772 200.72359 122.49308 198.49149 117.89649 196.2188 z M 143.02157 204.35525 L 141.90794 204.35732 C 141.90894 204.35832 141.91108 204.35872 141.91208 204.35938 L 143.02157 204.35525 z " />
  </g>
</svg>
